<svg width="12" height="13" viewBox="0 0 12 13" fill="none" xmlns="http://www.w3.org/2000/svg">
<path d="M5.97 10.1C6.18 10.1 6.3576 10.0274 6.5028 9.8822C6.648 9.737 6.7204 9.5596 6.72 9.35C6.7196 9.1404 6.6472 8.9628 6.5028 8.8172C6.3584 8.6716 6.1808 8.5992 5.97 8.6C5.7592 8.6008 5.5818 8.6734 5.4378 8.8178C5.2938 8.9622 5.2212 9.1396 5.22 9.35C5.2188 9.5604 5.2914 9.738 5.4378 9.8828C5.5842 10.0276 5.7616 10.1 5.97 10.1ZM5.43 7.79H6.54C6.54 7.46 6.5776 7.2 6.6528 7.01C6.728 6.82 6.9404 6.56 7.29 6.23C7.55 5.97 7.755 5.7224 7.905 5.4872C8.055 5.252 8.13 4.9696 8.13 4.64C8.13 4.08 7.92499 3.65 7.515 3.35C7.105 3.05 6.62 2.9 6.06 2.9C5.49 2.9 5.0276 3.05 4.6728 3.35C4.318 3.65 4.0704 4.01 3.93 4.43L4.92 4.82C4.97 4.64 5.0826 4.445 5.2578 4.235C5.433 4.025 5.7004 3.92 6.06 3.92C6.38 3.92 6.62 4.0076 6.78 4.1828C6.94 4.358 7.02 4.5504 7.02 4.76C7.02 4.96 6.96 5.1476 6.84 5.3228C6.72 5.498 6.57 5.6604 6.39 5.81C5.95 6.2 5.68 6.495 5.58 6.695C5.48 6.895 5.43 7.26 5.43 7.79ZM6 12.5C5.17 12.5 4.39 12.3426 3.66 12.0278C2.93 11.713 2.295 11.2854 1.755 10.745C1.215 10.2046 0.7876 9.5696 0.4728 8.84C0.158001 8.1104 0.000400759 7.3304 7.59493e-07 6.5C-0.00039924 5.6696 0.157201 4.8896 0.4728 4.16C0.7884 3.4304 1.2158 2.7954 1.755 2.255C2.2942 1.7146 2.9292 1.2872 3.66 0.972803C4.3908 0.658403 5.1708 0.500803 6 0.500003C6.8292 0.499203 7.6092 0.656803 8.33999 0.972803C9.07079 1.2888 9.7058 1.7162 10.245 2.255C10.7842 2.7938 11.2118 3.4288 11.5278 4.16C11.8438 4.8912 12.0012 5.6712 12 6.5C11.9988 7.3288 11.8412 8.1088 11.5272 8.84C11.2132 9.5712 10.7858 10.2062 10.245 10.745C9.7042 11.2838 9.06919 11.7114 8.33999 12.0278C7.6108 12.3442 6.8308 12.5016 6 12.5ZM6 11.3C7.34 11.3 8.47499 10.835 9.40499 9.905C10.335 8.975 10.8 7.84 10.8 6.5C10.8 5.16 10.335 4.025 9.40499 3.095C8.47499 2.165 7.34 1.7 6 1.7C4.66 1.7 3.525 2.165 2.595 3.095C1.665 4.025 1.2 5.16 1.2 6.5C1.2 7.84 1.665 8.975 2.595 9.905C3.525 10.835 4.66 11.3 6 11.3Z" fill="white" fill-opacity="0.7"/>
</svg>
