<svg width="25" height="25" viewBox="0 0 25 25" fill="none" xmlns="http://www.w3.org/2000/svg">
<path d="M4.18994 0.5C3.19538 0.5 2.24155 0.895088 1.53829 1.59835C0.83503 2.30161 0.439941 3.25544 0.439941 4.25V17.75C0.439941 18.7446 0.83503 19.6984 1.53829 20.4016C2.24155 21.1049 3.19538 21.5 4.18994 21.5H17.6899C18.6845 21.5 19.6383 21.1049 20.3416 20.4016C21.0449 19.6984 21.4399 18.7446 21.4399 17.75V4.25C21.4399 3.25544 21.0449 2.30161 20.3416 1.59835C19.6383 0.895088 18.6845 0.5 17.6899 0.5H4.18994ZM11.6899 7.25V10.25H14.6899C14.8889 10.25 15.0796 10.329 15.2203 10.4697C15.3609 10.6103 15.4399 10.8011 15.4399 11C15.4399 11.1989 15.3609 11.3897 15.2203 11.5303C15.0796 11.671 14.8889 11.75 14.6899 11.75H11.6899V14.75C11.6899 14.9489 11.6109 15.1397 11.4703 15.2803C11.3296 15.421 11.1389 15.5 10.9399 15.5C10.741 15.5 10.5503 15.421 10.4096 15.2803C10.269 15.1397 10.1899 14.9489 10.1899 14.75V11.75H7.18994C6.99103 11.75 6.80026 11.671 6.65961 11.5303C6.51896 11.3897 6.43994 11.1989 6.43994 11C6.43994 10.8011 6.51896 10.6103 6.65961 10.4697C6.80026 10.329 6.99103 10.25 7.18994 10.25H10.1899V7.25C10.1899 7.05109 10.269 6.86032 10.4096 6.71967C10.5503 6.57902 10.741 6.5 10.9399 6.5C11.1389 6.5 11.3296 6.57902 11.4703 6.71967C11.6109 6.86032 11.6899 7.05109 11.6899 7.25ZM8.68994 24.5C7.31585 24.5002 5.99644 23.9617 5.01494 23H19.1899C20.1845 23 21.1383 22.6049 21.8416 21.9016C22.5449 21.1984 22.9399 20.2446 22.9399 19.25V5.075C23.8684 6.023 24.4399 7.319 24.4399 8.75V19.25C24.4399 20.6424 23.8868 21.9777 22.9023 22.9623C21.9177 23.9469 20.5823 24.5 19.1899 24.5H8.68994Z" fill="white"/>
</svg>
