<svg width="65" height="64" viewBox="0 0 65 64" fill="none" xmlns="http://www.w3.org/2000/svg">
<mask id="mask0_845_2635" style="mask-type:luminance" maskUnits="userSpaceOnUse" x="0" y="0" width="65" height="64">
<path d="M32.5 62C36.4404 62.0051 40.343 61.2314 43.9834 59.7234C47.6238 58.2155 50.9304 56.0029 53.713 53.213C56.5029 50.4304 58.7155 47.1238 60.2234 43.4834C61.7314 39.843 62.5051 35.9404 62.5 32C62.505 28.0596 61.7313 24.1571 60.2233 20.5167C58.7154 16.8762 56.5029 13.5697 53.713 10.787C50.9304 7.99706 47.6238 5.78452 43.9834 4.27655C40.343 2.76858 36.4404 1.99492 32.5 2.00003C28.5596 1.995 24.6571 2.7687 21.0167 4.27667C17.3762 5.78463 14.0697 7.99713 11.287 10.787C8.49713 13.5697 6.28463 16.8762 4.77667 20.5167C3.2687 24.1571 2.495 28.0596 2.50003 32C2.49492 35.9404 3.26858 39.843 4.77655 43.4834C6.28452 47.1238 8.49706 50.4304 11.287 53.213C14.0697 56.0029 17.3762 58.2154 21.0167 59.7233C24.6571 61.2313 28.5596 62.005 32.5 62Z" fill="white" stroke="white" stroke-width="4" stroke-linejoin="round"/>
<path d="M20.5 32L29.5 41L47.5 23" stroke="black" stroke-width="4" stroke-linecap="round" stroke-linejoin="round"/>
</mask>
<g mask="url(#mask0_845_2635)">
<path d="M-3.5 -4H68.4999V67.9999H-3.5V-4Z" fill="#4CD964"/>
</g>
</svg>
