<svg width="21" height="20" viewBox="0 0 21 20" fill="none" xmlns="http://www.w3.org/2000/svg">
<path d="M4.59094 15.5L12.0909 12L15.5909 4.5L8.09094 7.99999L4.59094 15.5ZM10.0909 11C9.8076 11 9.57027 10.904 9.37894 10.712C9.1876 10.52 9.0916 10.2827 9.09094 9.99999C9.09027 9.71733 9.18627 9.47999 9.37894 9.28799C9.5716 9.09599 9.80894 8.99999 10.0909 8.99999C10.3729 8.99999 10.6106 9.09599 10.8039 9.28799C10.9973 9.47999 11.0929 9.71733 11.0909 9.99999C11.0889 10.2827 10.9929 10.5203 10.8029 10.713C10.6129 10.9057 10.3756 11.0013 10.0909 11ZM10.0909 20C8.7076 20 7.40761 19.7373 6.19094 19.212C4.97427 18.6867 3.91594 17.9743 3.01594 17.075C2.11594 16.1757 1.40361 15.1173 0.878943 13.9C0.354277 12.6827 0.0916103 11.3827 0.0909436 9.99999C0.090277 8.61733 0.352944 7.31733 0.878943 6.1C1.40494 4.88266 2.11728 3.82433 3.01594 2.925C3.91461 2.02567 4.97294 1.31333 6.19094 0.788C7.40894 0.262667 8.70894 0 10.0909 0C11.4729 0 12.7729 0.262667 13.9909 0.788C15.2089 1.31333 16.2673 2.02567 17.1659 2.925C18.0646 3.82433 18.7773 4.88266 19.3039 6.1C19.8306 7.31733 20.0929 8.61733 20.0909 9.99999C20.0889 11.3827 19.8263 12.6827 19.3029 13.9C18.7796 15.1173 18.0673 16.1757 17.1659 17.075C16.2646 17.9743 15.2063 18.687 13.9909 19.213C12.7756 19.739 11.4756 20.0013 10.0909 20ZM10.0909 18C12.3243 18 14.2159 17.225 15.7659 15.675C17.3159 14.125 18.0909 12.2333 18.0909 9.99999C18.0909 7.76666 17.3159 5.875 15.7659 4.325C14.2159 2.775 12.3243 2 10.0909 2C7.8576 2 5.96594 2.775 4.41594 4.325C2.86594 5.875 2.09094 7.76666 2.09094 9.99999C2.09094 12.2333 2.86594 14.125 4.41594 15.675C5.96594 17.225 7.8576 18 10.0909 18Z" fill="white"/>
</svg>
