<svg width="12" height="11" viewBox="0 0 12 11" fill="none" xmlns="http://www.w3.org/2000/svg">
<path d="M6.85714 0.357178C5.49317 0.357178 4.18507 0.899013 3.22059 1.86349C2.25612 2.82796 1.71429 4.13606 1.71429 5.50004H0L2.22286 7.72289L2.26286 7.80289L4.57143 5.50004H2.85714C2.85714 3.28861 4.64571 1.50003 6.85714 1.50003C9.06857 1.50003 10.8571 3.28861 10.8571 5.50004C10.8571 7.71146 9.06857 9.50004 6.85714 9.50004C5.75429 9.50004 4.75429 9.04861 4.03429 8.32289L3.22286 9.13432C3.69909 9.61319 4.26542 9.99303 4.88918 10.2519C5.51294 10.5109 6.18178 10.6437 6.85714 10.6429C8.22111 10.6429 9.52922 10.1011 10.4937 9.13658C11.4582 8.17211 12 6.86401 12 5.50004C12 4.13606 11.4582 2.82796 10.4937 1.86349C9.52922 0.899013 8.22111 0.357178 6.85714 0.357178ZM6.28571 3.21432V6.07146L8.71429 7.51146L9.15429 6.78004L7.14286 5.58575V3.21432H6.28571Z" fill="white" fill-opacity="0.7"/>
</svg>
