<svg width="19" height="20" viewBox="0 0 19 20" fill="none" xmlns="http://www.w3.org/2000/svg">
<path fill-rule="evenodd" clip-rule="evenodd" d="M8.53278 0.191498C8.86106 -0.0638327 9.32076 -0.0638327 9.64904 0.191498L17.8309 6.55513C18.0523 6.72737 18.1818 6.99219 18.1818 7.27273V17.2727C18.1818 17.996 17.8945 18.6897 17.383 19.2012C16.8716 19.7127 16.1779 20 15.4545 20H11.8182V12C11.8182 10.8954 10.9228 10 9.8182 10H8.36365C7.25908 10 6.36365 10.8954 6.36365 12V20H2.72727C2.00395 20 1.31026 19.7127 0.7988 19.2012C0.287337 18.6897 0 17.996 0 17.2727V7.27273C0 6.99219 0.129521 6.72737 0.350963 6.55513L8.53278 0.191498Z" fill="white"/>
</svg>
