<svg width="22" height="22" viewBox="0 0 22 22" fill="none" xmlns="http://www.w3.org/2000/svg">
<path d="M18.6534 5.99998C18.7071 5.69351 18.6931 5.37901 18.6123 5.07854C18.5315 4.77807 18.386 4.49892 18.1859 4.26068C17.9857 4.02245 17.7359 3.8309 17.4539 3.69948C17.1719 3.56806 16.8645 3.49997 16.5534 3.49997H5.62932C5.31819 3.49997 5.01083 3.56806 4.72881 3.69948C4.44679 3.8309 4.19695 4.02245 3.99683 4.26068C3.79671 4.49892 3.65116 4.77807 3.5704 5.07854C3.48963 5.37901 3.47561 5.69351 3.52931 5.99998M16.5914 3.49997C16.6194 3.23996 16.6344 3.11096 16.6344 3.00396C16.6355 2.50965 16.4534 2.03246 16.1235 1.66442C15.7935 1.29639 15.3389 1.0636 14.8474 1.01095C14.7414 0.999954 14.6114 0.999954 14.3514 0.999954H7.83133C7.57133 0.999954 7.44033 0.999954 7.33433 1.01095C6.84283 1.0636 6.38824 1.29639 6.05825 1.66442C5.72825 2.03246 5.54624 2.50965 5.54732 3.00396C5.54732 3.11096 5.56132 3.24096 5.59032 3.49997" stroke="white" stroke-width="1.5"/>
<path d="M14.0912 17H8.09119" stroke="white" stroke-width="1.5" stroke-linecap="round"/>
<path d="M1.47527 12.793C1.02827 9.629 0.80527 8.04799 1.75327 7.02299C2.70128 5.99998 4.38929 5.99998 7.7633 5.99998H14.4193C17.7933 5.99998 19.4814 5.99998 20.4294 7.02399C21.3764 8.04799 21.1534 9.629 20.7074 12.793L20.2854 15.793C19.9354 18.273 19.7604 19.514 18.8634 20.2571C17.9663 21.0001 16.6433 21.0001 13.9963 21.0001H8.1863C5.54029 21.0001 4.21629 21.0001 3.31928 20.2571C2.42228 19.514 2.24728 18.274 1.89728 15.793L1.47527 12.793Z" stroke="white" stroke-width="1.5"/>
</svg>
