<svg width="25" height="24" viewBox="0 0 25 24" fill="none" xmlns="http://www.w3.org/2000/svg">
<path d="M12.5725 23.9876H13.2129C13.7652 24.037 14.32 23.9251 14.8127 23.6676C17.3717 22.7053 19.6093 22.0629 22.1709 21.1005C22.1709 21.1005 24.0896 20.4581 24.0896 17.2486V5.0555C24.1155 4.10616 23.7681 3.18544 23.1251 2.48839C22.8036 2.48839 22.8036 2.16848 22.4847 2.16848L14.8049 0.241201C13.8715 -0.0787117 12.8603 -0.0787117 11.9269 0.241201C10.6461 0.883627 4.56865 2.8083 4.56865 2.8083C3.82193 3.04239 3.15559 3.48714 2.65519 4.09056H2.00959L1.68809 4.41307L1.36658 4.73298V6.98017L1.68809 7.30269L2.007 7.6226H2.3285V12.1092H2.00959L0.409853 12.7516C0.0909424 12.7516 0.0909424 13.0741 0.0909424 13.394V14.3564L0.409853 14.6789L0.731356 14.9988L2.33109 15.3213V19.8079C2.28183 20.3671 2.39591 20.9263 2.65519 21.4231C2.84446 21.756 3.12966 22.0239 3.46932 22.1955M23.1225 17.5711C23.1225 19.8183 21.8417 20.1382 21.8417 20.1382C21.8417 20.1382 17.6829 21.743 14.4834 22.7053C13.5241 23.0278 12.8837 23.0278 12.8837 22.7053C12.7022 22.6169 12.5466 22.4816 12.4325 22.31C12.321 22.1409 12.2536 21.9432 12.2432 21.7404V7.94511C12.2432 6.98277 12.5647 6.02043 13.5241 6.02043L21.8417 3.45333H22.1632C23.1225 3.45333 23.1225 4.41567 23.1225 5.0581V17.5737V17.5711Z" fill="white"/>
<path d="M17.491 8.8041L21.0353 7.73252C21.2531 7.63889 21.4916 7.80535 21.4916 8.05244V14.872C21.4916 15.244 21.3672 15.6029 21.1312 15.8942C20.8979 16.1829 20.5712 16.3806 20.2082 16.4586C19.8452 16.534 19.4667 16.482 19.1374 16.3103C18.8081 16.1387 18.5488 15.8578 18.4011 15.5171C18.2559 15.1763 18.2299 14.794 18.3285 14.4351C18.4296 14.0762 18.6526 13.764 18.9559 13.5508C19.2593 13.3375 19.6274 13.2361 19.9982 13.2621C20.3664 13.2907 20.7164 13.4441 20.986 13.7016V10.2814H20.9783L20.6568 10.4219L20.2678 10.5909H20.2601C20.229 10.5987 20.2056 10.6117 20.1875 10.6247L16.8376 12.0682V16.5496C16.8376 16.9216 16.7132 17.2805 16.4772 17.5718C16.2439 17.8605 15.9172 18.0582 15.5542 18.1362C15.1912 18.2116 14.8127 18.1596 14.4834 17.9879C14.1541 17.8163 13.8948 17.5354 13.747 17.1947C13.5993 16.8539 13.5759 16.4716 13.6744 16.1127C13.773 15.7537 13.9959 15.4416 14.2993 15.2284C14.6027 15.0151 14.9708 14.9137 15.3416 14.9397C15.7124 14.9683 16.0624 15.1217 16.332 15.3792V9.39971C16.332 9.28007 16.3943 9.16043 16.5057 9.11101L17.4858 8.8067L17.491 8.8041Z" fill="white"/>
</svg>
