<svg width="10" height="13" viewBox="0 0 10 13" fill="none" xmlns="http://www.w3.org/2000/svg">
<path d="M5 9.60937C5.17708 9.60937 5.32562 9.54937 5.44562 9.42937C5.56562 9.30937 5.62542 9.16104 5.625 8.98437V6.48437C5.625 6.30729 5.565 6.15896 5.445 6.03937C5.325 5.91979 5.17667 5.85979 5 5.85937C4.82333 5.85896 4.675 5.91896 4.555 6.03937C4.435 6.15979 4.375 6.30812 4.375 6.48437V8.98437C4.375 9.16146 4.435 9.31 4.555 9.43C4.675 9.55 4.82333 9.60979 5 9.60937ZM5 4.60937C5.17708 4.60937 5.32562 4.54937 5.44562 4.42937C5.56562 4.30937 5.62542 4.16104 5.625 3.98437C5.62458 3.80771 5.56458 3.65937 5.445 3.53937C5.32542 3.41937 5.17708 3.35937 5 3.35937C4.82292 3.35937 4.67458 3.41937 4.555 3.53937C4.43542 3.65937 4.37542 3.80771 4.375 3.98437C4.37458 4.16104 4.43458 4.30958 4.555 4.43C4.67542 4.55042 4.82375 4.61021 5 4.60937ZM5 12.6719C4.92708 12.6719 4.85937 12.6667 4.79687 12.6562C4.73437 12.6458 4.67187 12.6302 4.60937 12.6094C3.20312 12.1406 2.08333 11.2733 1.25 10.0075C0.416667 8.74166 0 7.37979 0 5.92187V2.96875C0 2.70833 0.0756249 2.47396 0.226875 2.26562C0.378125 2.05729 0.573333 1.90625 0.8125 1.8125L4.5625 0.40625C4.70833 0.354167 4.85417 0.328125 5 0.328125C5.14583 0.328125 5.29167 0.354167 5.4375 0.40625L9.1875 1.8125C9.42708 1.90625 9.6225 2.05729 9.77375 2.26562C9.925 2.47396 10.0004 2.70833 10 2.96875V5.92187C10 7.38021 9.58333 8.74229 8.75 10.0081C7.91667 11.274 6.79687 12.141 5.39062 12.6094C5.32812 12.6302 5.26562 12.6458 5.20312 12.6562C5.14062 12.6667 5.07292 12.6719 5 12.6719ZM5 11.4219C6.08333 11.0781 6.97917 10.3906 7.6875 9.35937C8.39583 8.32812 8.75 7.18229 8.75 5.92187V2.96875L5 1.5625L1.25 2.96875V5.92187C1.25 7.18229 1.60417 8.32812 2.3125 9.35937C3.02083 10.3906 3.91667 11.0781 5 11.4219Z" fill="white" fill-opacity="0.7"/>
</svg>
