<svg width="48" height="49" viewBox="0 0 48 49" fill="none" xmlns="http://www.w3.org/2000/svg">
<rect y="0.5" width="48" height="48" rx="8" fill="url(#paint0_linear_815_2545)"/>
<path d="M15.75 12.5C14.7554 12.5 13.8016 12.8951 13.0983 13.5983C12.3951 14.3016 12 15.2554 12 16.25V29.75C12 30.7446 12.3951 31.6984 13.0983 32.4016C13.8016 33.1049 14.7554 33.5 15.75 33.5H29.25C30.2446 33.5 31.1984 33.1049 31.9016 32.4016C32.6049 31.6984 33 30.7446 33 29.75V16.25C33 15.2554 32.6049 14.3016 31.9016 13.5983C31.1984 12.8951 30.2446 12.5 29.25 12.5H15.75ZM23.25 19.25V22.25H26.25C26.4489 22.25 26.6397 22.329 26.7803 22.4697C26.921 22.6103 27 22.8011 27 23C27 23.1989 26.921 23.3897 26.7803 23.5303C26.6397 23.671 26.4489 23.75 26.25 23.75H23.25V26.75C23.25 26.9489 23.171 27.1397 23.0303 27.2803C22.8897 27.421 22.6989 27.5 22.5 27.5C22.3011 27.5 22.1103 27.421 21.9697 27.2803C21.829 27.1397 21.75 26.9489 21.75 26.75V23.75H18.75C18.5511 23.75 18.3603 23.671 18.2197 23.5303C18.079 23.3897 18 23.1989 18 23C18 22.8011 18.079 22.6103 18.2197 22.4697C18.3603 22.329 18.5511 22.25 18.75 22.25H21.75V19.25C21.75 19.0511 21.829 18.8603 21.9697 18.7197C22.1103 18.579 22.3011 18.5 22.5 18.5C22.6989 18.5 22.8897 18.579 23.0303 18.7197C23.171 18.8603 23.25 19.0511 23.25 19.25ZM20.25 36.5C18.8759 36.5002 17.5565 35.9617 16.575 35H30.75C31.7446 35 32.6984 34.6049 33.4016 33.9016C34.1049 33.1984 34.5 32.2446 34.5 31.25V17.075C35.4285 18.023 36 19.319 36 20.75V31.25C36 32.6424 35.4469 33.9777 34.4623 34.9623C33.4777 35.9469 32.1424 36.5 30.75 36.5H20.25Z" fill="white"/>
<defs>
<linearGradient id="paint0_linear_815_2545" x1="0" y1="0.5" x2="48" y2="48.5" gradientUnits="userSpaceOnUse">
<stop stop-color="#F69B35"/>
<stop offset="1" stop-color="#FF2E00"/>
</linearGradient>
</defs>
</svg>
