<svg width="14" height="13" viewBox="0 0 14 13" fill="none" xmlns="http://www.w3.org/2000/svg">
<path d="M5.88333 1.378C6.16733 0.207333 7.83267 0.207333 8.11667 1.378C8.15928 1.55387 8.24281 1.71719 8.36047 1.85467C8.47813 1.99215 8.62659 2.0999 8.79377 2.16916C8.96094 2.23843 9.14211 2.26723 9.32252 2.25325C9.50294 2.23926 9.6775 2.18287 9.832 2.08867C10.8607 1.462 12.0387 2.63933 11.412 3.66867C11.3179 3.8231 11.2616 3.99756 11.2477 4.17785C11.2337 4.35814 11.2625 4.53918 11.3317 4.70625C11.4009 4.87333 11.5085 5.02172 11.6458 5.13937C11.7831 5.25702 11.9463 5.3406 12.122 5.38333C13.2927 5.66733 13.2927 7.33267 12.122 7.61667C11.9461 7.65928 11.7828 7.74281 11.6453 7.86047C11.5079 7.97813 11.4001 8.12659 11.3308 8.29377C11.2616 8.46094 11.2328 8.64211 11.2468 8.82252C11.2607 9.00294 11.3171 9.1775 11.4113 9.332C12.038 10.3607 10.8607 11.5387 9.83133 10.912C9.6769 10.8179 9.50244 10.7616 9.32215 10.7477C9.14186 10.7337 8.96082 10.7625 8.79375 10.8317C8.62667 10.9009 8.47828 11.0085 8.36063 11.1458C8.24298 11.2831 8.1594 11.4463 8.11667 11.622C7.83267 12.7927 6.16733 12.7927 5.88333 11.622C5.84072 11.4461 5.75719 11.2828 5.63953 11.1453C5.52187 11.0079 5.37341 10.9001 5.20623 10.8308C5.03906 10.7616 4.85789 10.7328 4.67748 10.7468C4.49706 10.7607 4.3225 10.8171 4.168 10.9113C3.13933 11.538 1.96133 10.3607 2.588 9.33133C2.68207 9.1769 2.73837 9.00244 2.75232 8.82215C2.76628 8.64186 2.7375 8.46082 2.66831 8.29375C2.59913 8.12667 2.49151 7.97828 2.35418 7.86063C2.21686 7.74298 2.05371 7.6594 1.878 7.61667C0.707333 7.33267 0.707333 5.66733 1.878 5.38333C2.05387 5.34072 2.21719 5.25719 2.35467 5.13953C2.49215 5.02187 2.5999 4.87341 2.66916 4.70623C2.73843 4.53906 2.76723 4.35789 2.75325 4.17748C2.73926 3.99706 2.68287 3.8225 2.58867 3.668C1.962 2.63933 3.13933 1.46133 4.16867 2.088C4.83533 2.49333 5.69933 2.13467 5.88333 1.378Z" stroke="white" stroke-opacity="0.7" stroke-linecap="round" stroke-linejoin="round"/>
<path d="M5 6.5C5 7.03043 5.21071 7.53914 5.58579 7.91421C5.96086 8.28929 6.46957 8.5 7 8.5C7.53043 8.5 8.03914 8.28929 8.41421 7.91421C8.78929 7.53914 9 7.03043 9 6.5C9 5.96957 8.78929 5.46086 8.41421 5.08579C8.03914 4.71071 7.53043 4.5 7 4.5C6.46957 4.5 5.96086 4.71071 5.58579 5.08579C5.21071 5.46086 5 5.96957 5 6.5Z" stroke="white" stroke-opacity="0.7" stroke-linecap="round" stroke-linejoin="round"/>
</svg>
